<svg xmlns="http://www.w3.org/2000/svg" viewBox="0 0 320 220"><defs><linearGradient id="box" x1="0" y1="0" x2="1" y2="1"><stop stop-color="#d43b32"/><stop offset=".55" stop-color="#a91f1e"/><stop offset="1" stop-color="#711517"/></linearGradient><linearGradient id="chip" x1="0" y1="0" x2="1" y2="1"><stop stop-color="#ffe486"/><stop offset=".48" stop-color="#e7a83f"/><stop offset="1" stop-color="#a66420"/></linearGradient><filter id="s" x="-30%" y="-40%" width="160%" height="190%"><feDropShadow dx="0" dy="11" stdDeviation="9" flood-opacity=".4"/></filter></defs><ellipse cx="160" cy="186" rx="92" ry="17" fill="#000" opacity=".15"/><g filter="url(#s)"><g stroke="#9e5c1f" stroke-width="2"><path d="M82 121L70 45l19-3 13 78z" fill="url(#chip)"/><path d="M104 117L98 29l20-1 6 89z" fill="url(#chip)"/><path d="M128 116l5-91 19 1-4 91z" fill="url(#chip)"/><path d="M151 115l18-88 20 4-17 87z" fill="url(#chip)"/><path d="M175 119l34-80 18 8-33 78z" fill="url(#chip)"/><path d="M196 126l47-66 16 12-46 66z" fill="url(#chip)"/><path d="M69 128l-9-62 17-3 12 64z" fill="url(#chip)"/><path d="M222 132l31-49 16 10-30 50z" fill="url(#chip)"/></g><path d="M67 103c34 10 64 14 92 13 34-1 64-6 94-17l-18 82H87z" fill="url(#box)" stroke="#671217" stroke-width="5"/><path d="M67 103c39 14 78 18 116 12 26-4 49-10 70-16" fill="none" stroke="#f26c61" stroke-width="5" opacity=".7"/><path d="M101 139c38 12 76 10 113-6" stroke="#ef8b82" stroke-width="3" opacity=".35" fill="none"/><g fill="#f5d06c"><ellipse cx="104" cy="71" rx="4" ry="2"/><ellipse cx="144" cy="58" rx="3" ry="2"/><ellipse cx="190" cy="72" rx="4" ry="2"/><ellipse cx="224" cy="91" rx="3" ry="2"/></g><text x="160" y="154" text-anchor="middle" fill="#ffe6a5" font-family="Arial,sans-serif" font-size="16" font-weight="900" letter-spacing="2">HOT CHIPS</text><text x="160" y="172" text-anchor="middle" fill="#fff" font-family="Arial,sans-serif" font-size="7" font-weight="700" letter-spacing="1.5">KEBAB RUSH</text></g></svg>