<svg xmlns="http://www.w3.org/2000/svg" viewBox="0 0 160 160"><defs><linearGradient id="jacket" x1="0" y1="0" x2="1" y2="1"><stop stop-color="#3a4148"/><stop offset="1" stop-color="#151a1e"/></linearGradient><filter id="s"><feDropShadow dx="0" dy="6" stdDeviation="5" flood-opacity=".3"/></filter></defs><g filter="url(#s)"><circle cx="80" cy="80" r="66" fill="#dff0eb"/><path d="M31 145c5-29 23-47 49-47s45 18 49 47" fill="url(#jacket)"/><path d="M63 100l17 22 17-22" fill="#f5f2ea"/><ellipse cx="80" cy="70" rx="29" ry="34" fill="#d79b72"/><path d="M50 60c1-22 14-36 31-36 20 0 33 14 32 38-14-13-42-15-63-2z" fill="#2f241e"/><path d="M56 54c8-15 18-21 32-21 10 0 18 4 24 11-20-3-38 1-56 10z" fill="#2f241e"/><circle cx="69" cy="70" r="3" fill="#2a211d"/><circle cx="91" cy="70" r="3" fill="#2a211d"/><path d="M68 86c8 5 16 5 24 0" fill="none" stroke="#8f4a3a" stroke-width="3" stroke-linecap="round"/></g></svg>